<svg xmlns="http://www.w3.org/2000/svg" width="642" height="226" viewBox="0 0 642 226" role="img" aria-label="scry">
  <defs>
    <linearGradient id="fire" gradientUnits="userSpaceOnUse" x1="0" y1="22" x2="0" y2="204">
      <stop offset="0%" stop-color="#ffc23a"/>
      <stop offset="45%" stop-color="#ff7a16"/>
      <stop offset="100%" stop-color="#c01608"/>
    </linearGradient>
  </defs>
  <rect x="22" y="22" width="26" height="26" fill="url(#fire)"/>
  <rect x="22" y="22" width="26" height="3" fill="#fff3b0" opacity="0.45"/>
  <rect x="48" y="22" width="26" height="26" fill="url(#fire)"/>
  <rect x="48" y="22" width="26" height="3" fill="#fff3b0" opacity="0.45"/>
  <rect x="74" y="22" width="26" height="26" fill="url(#fire)"/>
  <rect x="74" y="22" width="26" height="3" fill="#fff3b0" opacity="0.45"/>
  <rect x="100" y="22" width="26" height="26" fill="url(#fire)"/>
  <rect x="100" y="22" width="26" height="3" fill="#fff3b0" opacity="0.45"/>
  <rect x="126" y="22" width="26" height="26" fill="url(#fire)"/>
  <rect x="126" y="22" width="26" height="3" fill="#fff3b0" opacity="0.45"/>
  <rect x="22" y="48" width="26" height="26" fill="url(#fire)"/>
  <rect x="22" y="74" width="26" height="26" fill="url(#fire)"/>
  <rect x="22" y="100" width="26" height="26" fill="url(#fire)"/>
  <rect x="48" y="100" width="26" height="26" fill="url(#fire)"/>
  <rect x="48" y="100" width="26" height="3" fill="#fff3b0" opacity="0.45"/>
  <rect x="74" y="100" width="26" height="26" fill="url(#fire)"/>
  <rect x="74" y="100" width="26" height="3" fill="#fff3b0" opacity="0.45"/>
  <rect x="100" y="100" width="26" height="26" fill="url(#fire)"/>
  <rect x="100" y="100" width="26" height="3" fill="#fff3b0" opacity="0.45"/>
  <rect x="126" y="100" width="26" height="26" fill="url(#fire)"/>
  <rect x="126" y="100" width="26" height="3" fill="#fff3b0" opacity="0.45"/>
  <rect x="126" y="126" width="26" height="26" fill="url(#fire)"/>
  <rect x="126" y="152" width="26" height="26" fill="url(#fire)"/>
  <rect x="22" y="178" width="26" height="26" fill="url(#fire)"/>
  <rect x="22" y="178" width="26" height="3" fill="#fff3b0" opacity="0.45"/>
  <rect x="48" y="178" width="26" height="26" fill="url(#fire)"/>
  <rect x="48" y="178" width="26" height="3" fill="#fff3b0" opacity="0.45"/>
  <rect x="74" y="178" width="26" height="26" fill="url(#fire)"/>
  <rect x="74" y="178" width="26" height="3" fill="#fff3b0" opacity="0.45"/>
  <rect x="100" y="178" width="26" height="26" fill="url(#fire)"/>
  <rect x="100" y="178" width="26" height="3" fill="#fff3b0" opacity="0.45"/>
  <rect x="126" y="178" width="26" height="26" fill="url(#fire)"/>
  <rect x="178" y="22" width="26" height="26" fill="url(#fire)"/>
  <rect x="178" y="22" width="26" height="3" fill="#fff3b0" opacity="0.45"/>
  <rect x="204" y="22" width="26" height="26" fill="url(#fire)"/>
  <rect x="204" y="22" width="26" height="3" fill="#fff3b0" opacity="0.45"/>
  <rect x="230" y="22" width="26" height="26" fill="url(#fire)"/>
  <rect x="230" y="22" width="26" height="3" fill="#fff3b0" opacity="0.45"/>
  <rect x="256" y="22" width="26" height="26" fill="url(#fire)"/>
  <rect x="256" y="22" width="26" height="3" fill="#fff3b0" opacity="0.45"/>
  <rect x="282" y="22" width="26" height="26" fill="url(#fire)"/>
  <rect x="282" y="22" width="26" height="3" fill="#fff3b0" opacity="0.45"/>
  <rect x="178" y="48" width="26" height="26" fill="url(#fire)"/>
  <rect x="178" y="74" width="26" height="26" fill="url(#fire)"/>
  <rect x="178" y="100" width="26" height="26" fill="url(#fire)"/>
  <rect x="178" y="126" width="26" height="26" fill="url(#fire)"/>
  <rect x="178" y="152" width="26" height="26" fill="url(#fire)"/>
  <rect x="178" y="178" width="26" height="26" fill="url(#fire)"/>
  <rect x="204" y="178" width="26" height="26" fill="url(#fire)"/>
  <rect x="204" y="178" width="26" height="3" fill="#fff3b0" opacity="0.45"/>
  <rect x="230" y="178" width="26" height="26" fill="url(#fire)"/>
  <rect x="230" y="178" width="26" height="3" fill="#fff3b0" opacity="0.45"/>
  <rect x="256" y="178" width="26" height="26" fill="url(#fire)"/>
  <rect x="256" y="178" width="26" height="3" fill="#fff3b0" opacity="0.45"/>
  <rect x="282" y="178" width="26" height="26" fill="url(#fire)"/>
  <rect x="282" y="178" width="26" height="3" fill="#fff3b0" opacity="0.45"/>
  <rect x="334" y="22" width="26" height="26" fill="url(#fire)"/>
  <rect x="334" y="22" width="26" height="3" fill="#fff3b0" opacity="0.45"/>
  <rect x="360" y="22" width="26" height="26" fill="url(#fire)"/>
  <rect x="360" y="22" width="26" height="3" fill="#fff3b0" opacity="0.45"/>
  <rect x="386" y="22" width="26" height="26" fill="url(#fire)"/>
  <rect x="386" y="22" width="26" height="3" fill="#fff3b0" opacity="0.45"/>
  <rect x="412" y="22" width="26" height="26" fill="url(#fire)"/>
  <rect x="412" y="22" width="26" height="3" fill="#fff3b0" opacity="0.45"/>
  <rect x="334" y="48" width="26" height="26" fill="url(#fire)"/>
  <rect x="438" y="48" width="26" height="26" fill="url(#fire)"/>
  <rect x="438" y="48" width="26" height="3" fill="#fff3b0" opacity="0.45"/>
  <rect x="334" y="74" width="26" height="26" fill="url(#fire)"/>
  <rect x="438" y="74" width="26" height="26" fill="url(#fire)"/>
  <rect x="334" y="100" width="26" height="26" fill="url(#fire)"/>
  <rect x="360" y="100" width="26" height="26" fill="url(#fire)"/>
  <rect x="360" y="100" width="26" height="3" fill="#fff3b0" opacity="0.45"/>
  <rect x="386" y="100" width="26" height="26" fill="url(#fire)"/>
  <rect x="386" y="100" width="26" height="3" fill="#fff3b0" opacity="0.45"/>
  <rect x="412" y="100" width="26" height="26" fill="url(#fire)"/>
  <rect x="412" y="100" width="26" height="3" fill="#fff3b0" opacity="0.45"/>
  <rect x="334" y="126" width="26" height="26" fill="url(#fire)"/>
  <rect x="386" y="126" width="26" height="26" fill="url(#fire)"/>
  <rect x="334" y="152" width="26" height="26" fill="url(#fire)"/>
  <rect x="412" y="152" width="26" height="26" fill="url(#fire)"/>
  <rect x="412" y="152" width="26" height="3" fill="#fff3b0" opacity="0.45"/>
  <rect x="334" y="178" width="26" height="26" fill="url(#fire)"/>
  <rect x="438" y="178" width="26" height="26" fill="url(#fire)"/>
  <rect x="438" y="178" width="26" height="3" fill="#fff3b0" opacity="0.45"/>
  <rect x="490" y="22" width="26" height="26" fill="url(#fire)"/>
  <rect x="490" y="22" width="26" height="3" fill="#fff3b0" opacity="0.45"/>
  <rect x="594" y="22" width="26" height="26" fill="url(#fire)"/>
  <rect x="594" y="22" width="26" height="3" fill="#fff3b0" opacity="0.45"/>
  <rect x="490" y="48" width="26" height="26" fill="url(#fire)"/>
  <rect x="594" y="48" width="26" height="26" fill="url(#fire)"/>
  <rect x="516" y="74" width="26" height="26" fill="url(#fire)"/>
  <rect x="516" y="74" width="26" height="3" fill="#fff3b0" opacity="0.45"/>
  <rect x="568" y="74" width="26" height="26" fill="url(#fire)"/>
  <rect x="568" y="74" width="26" height="3" fill="#fff3b0" opacity="0.45"/>
  <rect x="542" y="100" width="26" height="26" fill="url(#fire)"/>
  <rect x="542" y="100" width="26" height="3" fill="#fff3b0" opacity="0.45"/>
  <rect x="542" y="126" width="26" height="26" fill="url(#fire)"/>
  <rect x="542" y="152" width="26" height="26" fill="url(#fire)"/>
  <rect x="542" y="178" width="26" height="26" fill="url(#fire)"/>
</svg>
